# xmcd CD database file
#
# Track frame offsets:
#	150
#	11395
#	24225
#	35892
#	49505
#	62375
#	78837
#	90792
#	102992
#	116212
#	130657
#	145867
#	160187
#	174362
#	188362
#	202642
#	217412
#	231742
#	243292
#	256417
#	272560
#	287097
#	302285
#
# Disc length: 4210 seconds
#
# Revision: 4
# Processed by: cddbd v1.5.1PL0 Copyright (c) Steve Scherf et al.
# Submitted via: CDex 1.51
#
DISCID=28107017
DTITLE=Fats Waller and his Rhythm - The Early Years, Part 2 (1935-36) - Disk 2
DYEAR=1995
DGENRE=Jazz
TTITLE0=Loafin' Time
TTITLE1=A Sweet Beginning Like This
TTITLE2=Got A Bran' New Suit
TTITLE3=I'm On A See-Saw
TTITLE4=Thief In The Night
TTITLE5=When Somebody Thinks You're Wonderful
TTITLE6=I've Got My Fingers Crossed
TTITLE7=Spreadin' Rhythm Around
TTITLE8=A Little Bit Independent
TTITLE9=You Stayed Away Too Long
TTITLE10=Sweet Thing
TTITLE11=Fat And Greasy (Take 1)
TTITLE12=Fat And Greasy (Take 2)
TTITLE13=Functionizin' (instrumental)
TTITLE14=I Got Rhythm
TTITLE15=The Panic Is On
TTITLE16=Sugar Rose
TTITLE17=Oooh! Look-a There, Ain't She Pretty?
TTITLE18=Moon Rose
TTITLE19=West Wind
TTITLE20=That Never-To-Be-Forgotten Night
TTITLE21=Sing An Old Fashioned Song
TTITLE22=Garbo Green
EXTD=YEAR: 1995
EXTT0=
EXTT1=
EXTT2=
EXTT3=
EXTT4=
EXTT5=
EXTT6=
EXTT7=
EXTT8=
EXTT9=
EXTT10=
EXTT11=
EXTT12=
EXTT13=
EXTT14=
EXTT15=
EXTT16=
EXTT17=
EXTT18=
EXTT19=
EXTT20=
EXTT21=
EXTT22=
PLAYORDER=
